<?xml version="1.0" standalone="no"?><!DOCTYPE svg PUBLIC "-//W3C//DTD SVG 1.1//EN" "http://www.w3.org/Graphics/SVG/1.1/DTD/svg11.dtd"><svg t="1505909412638" class="icon" style="" viewBox="0 0 1031 1024" version="1.1" xmlns="http://www.w3.org/2000/svg" p-id="1303" xmlns:xlink="http://www.w3.org/1999/xlink" width="201.3671875" height="200"><defs><style type="text/css"></style></defs><path d="M233.131227 82.829985a511.810156 511.810156 0 1 0 557.544719 858.532871q20.587068-13.02979 39.08937-28.404942a28.274645 28.274645 0 0 0 5.993704-37.2652l-23.58392-36.353115a73.87891 73.87891 0 0 0-101.762661-22.020345A364.052336 364.052336 0 1 1 742.726318 230.587805a28.274645 28.274645 0 0 1-2.866553 45.213372L435.092974 473.723689a73.87891 73.87891 0 0 0-21.75975 102.153554l24.886899 38.307583a28.274645 28.274645 0 0 0 39.089371 8.339066l478.453893-310.760495a28.274645 28.274645 0 0 0 9.90264-36.222816v-1.172681q-10.945024-20.847664-23.974813-41.043839A511.810156 511.810156 0 0 0 233.131227 82.829985z" p-id="1304" fill="#ffffff"></path><path d="M947.163725 497.177311l-95.768957 62.282397a28.274645 28.274645 0 0 0-8.339066 39.08937l62.282397 95.768957a28.274645 28.274645 0 0 0 39.089371 8.339066l47.949627-31.141198a85.345125 85.345125 0 0 0 25.147495-118.049899l-31.141198-47.949628a28.274645 28.274645 0 0 0-39.219669-8.339065z" p-id="1305" fill="#ffffff"></path></svg>